<?xml version="1.0" encoding="UTF-8"?>
<svg width="1000px" height="1000px" viewBox="0 0 1000 1000" version="1.1" xmlns="http://www.w3.org/2000/svg" xmlns:xlink="http://www.w3.org/1999/xlink">
    <title>krolis/layout</title>
    <g id="krolis/layout" stroke="none" fill="none" fill-rule="evenodd" stroke-width="1">
        <g id="编组" transform="translate(190, 377)">
            <polygon id="路径" fill="#F78A1F" points="460 -100 460 -90 390 -90 390 -100 380 -100 380 -110 420 -110 420 -120 450 -120 450 -130 480 -130 480 -140 510 -140 510 -150 520 -150 520 -160 530 -160 530 -140 520 -140 520 -120 510 -120 510 -110 490 -110 490 -100"></polygon>
            <path d="M530,-210 L530,-200 L520,-200 L520,-210 L530,-210 Z M590,-230 L550,-230 L550,-220 L540,-220 L540,-210 L530,-210 L530,-230 L540,-230 L540,-240 L550,-240 L550,-250 L570,-250 L570,-260 L590,-260 L590,-270 L670,-270 L670,-260 L640,-260 L640,-250 L620,-250 L620,-240 L590,-240 L590,-230 Z" id="形状" fill="#F9A222"></path>
            <path d="M200,-40 L200,-30 L190,-30 L190,-40 L200,-40 Z M350,-70 L350,-60 L370,-60 L370,-50 L420,-50 L420,-40 L400,-40 L400,-30 L330,-30 L330,-40 L310,-40 L310,-50 L220,-50 L220,-40 L200,-40 L200,-50 L210,-50 L210,-60 L220,-60 L220,-70 L240,-70 L240,-80 L330,-80 L330,-70 L350,-70 Z M440,-60 L440,-50 L420,-50 L420,-60 L440,-60 Z" id="形状" fill="#F07942"></path>
            <path d="M-90,20 L-90,30 L-100,30 L-100,20 L-90,20 Z M-30,-170 L-30,-160 L-40,-160 L-40,-170 L-30,-170 Z M390,-280 L390,-270 L380,-270 L380,-280 L390,-280 Z M380,-200 L380,-210 L410,-210 L410,-220 L430,-220 L430,-230 L440,-230 L440,-240 L460,-240 L460,-250 L470,-250 L470,-260 L480,-260 L480,-270 L490,-270 L490,-280 L500,-280 L500,-290 L510,-290 L510,-300 L520,-300 L520,-310 L540,-310 L540,-320 L580,-320 L580,-310 L560,-310 L560,-300 L540,-300 L540,-290 L530,-290 L530,-280 L520,-280 L520,-260 L510,-260 L510,-250 L500,-250 L500,-230 L490,-230 L490,-210 L480,-210 L480,-200 L470,-200 L470,-180 L460,-180 L460,-170 L450,-170 L450,-160 L430,-160 L430,-150 L420,-150 L420,-140 L400,-140 L400,-130 L370,-130 L370,-120 L330,-120 L330,-110 L260,-110 L260,-100 L230,-100 L230,-90 L210,-90 L210,-80 L200,-80 L200,-70 L190,-70 L190,-60 L180,-60 L180,-40 L170,-40 L170,-10 L160,-10 L160,30 L150,30 L150,40 L140,40 L140,50 L130,50 L130,60 L120,60 L120,70 L110,70 L110,80 L100,80 L100,90 L90,90 L90,100 L80,100 L80,110 L70,110 L70,120 L10,120 L10,110 L-20,110 L-20,100 L-40,100 L-40,90 L-50,90 L-50,80 L-70,80 L-70,60 L-80,60 L-80,50 L-90,50 L-90,30 L-80,30 L-80,40 L-70,40 L-70,20 L-80,20 L-80,0 L-90,0 L-90,-100 L-80,-100 L-80,-120 L-70,-120 L-70,-140 L-60,-140 L-60,-150 L-50,-150 L-50,-160 L-40,-160 L-40,-70 L-30,-70 L-30,-100 L-20,-100 L-20,-130 L-10,-130 L-10,-150 L0,-150 L0,-170 L10,-170 L10,-180 L20,-180 L20,-190 L30,-190 L30,-200 L40,-200 L40,-210 L50,-210 L50,-220 L70,-220 L70,-230 L90,-230 L90,-240 L120,-240 L120,-250 L150,-250 L150,-260 L170,-260 L170,-270 L190,-270 L190,-280 L200,-280 L200,-290 L210,-290 L210,-260 L200,-260 L200,-240 L190,-240 L190,-230 L180,-230 L180,-220 L170,-220 L170,-210 L160,-210 L160,-190 L170,-190 L170,-200 L180,-200 L180,-210 L200,-210 L200,-220 L220,-220 L220,-230 L260,-230 L260,-240 L320,-240 L320,-250 L350,-250 L350,-260 L360,-260 L360,-270 L380,-270 L380,-250 L370,-250 L370,-230 L360,-230 L360,-220 L340,-220 L340,-210 L320,-210 L320,-200 L380,-200 Z" id="形状" fill="#EC6729"></path>
            <path d="M-20,10 L-30,10 L-30,20 L-20,20 L-20,10 Z M160,-100 L160,-90 L150,-90 L150,-100 L160,-100 Z M110,-120 L100,-120 L100,-100 L90,-100 L90,-40 L100,-40 L100,-60 L110,-60 L110,-70 L120,-70 L120,-80 L130,-80 L130,-90 L150,-90 L150,-70 L140,-70 L140,-50 L130,-50 L130,-20 L140,-20 L140,10 L150,10 L150,40 L140,40 L140,50 L130,50 L130,60 L120,60 L120,70 L110,70 L110,80 L100,80 L100,90 L90,90 L90,100 L80,100 L80,110 L30,110 L30,100 L10,100 L10,90 L-10,90 L-10,80 L-20,80 L-20,70 L-30,70 L-30,50 L-40,50 L-40,30 L-50,30 L-50,-10 L-40,-10 L-40,10 L-30,10 L-30,-40 L-20,-40 L-20,-70 L-10,-70 L-10,-90 L0,-90 L0,-100 L10,-100 L10,-110 L20,-110 L20,-120 L30,-120 L30,-130 L50,-130 L50,-140 L70,-140 L70,-150 L100,-150 L100,-160 L130,-160 L130,-150 L120,-150 L120,-140 L110,-140 L110,-120 Z" id="形状" fill="#F9A222"></path>
            <path d="M50,-10 L60,-10 L60,10 L70,10 L70,20 L80,20 L80,40 L90,40 L90,30 L100,30 L100,0 L110,0 L110,10 L120,10 L120,40 L130,40 L130,60 L120,60 L120,70 L110,70 L110,80 L100,80 L100,90 L90,90 L90,100 L60,100 L60,90 L40,90 L40,80 L30,80 L30,70 L20,70 L20,60 L10,60 L10,40 L0,40 L0,-20 L10,-20 L10,-50 L20,-50 L20,-60 L30,-60 L30,-70 L40,-70 L40,-80 L50,-80 L50,-90 L60,-90 L60,-70 L50,-70 L50,-10 Z M70,-100 L70,-90 L60,-90 L60,-100 L70,-100 Z" id="形状" fill="#FBE488"></path>
        </g>
        <g id="编组" transform="translate(228.3617, 381.4513)">
            <path d="M170.837487,69.6717169 C166.136966,60.7264044 161.381107,53.0441127 156.569909,46.6248419 C156.029544,45.9021856 155.479414,45.42367 154.919518,45.189295 C154.749203,45.1176828 154.552876,45.1505183 154.415132,45.2736532 C154.277388,45.3967882 154.222838,45.5882207 154.274987,45.7654669 C155.485924,49.5610398 157.328372,55.6743211 159.802331,64.1053106 C161.384362,69.5089565 162.598555,75.2869513 163.444909,81.439295 C163.672773,83.0864304 163.200768,84.469894 162.028893,85.5896856 C149.294518,97.6795294 60.2417837,183.164555 57.4878775,186.126795 C56.6870962,186.98617 55.7919139,187.69255 54.8023306,188.245936 C54.5154868,188.408352 54.1768194,188.447158 53.8648306,188.353358 C38.3960806,183.770024 23.9527212,179.378748 10.5347525,175.179529 C7.01261704,174.079269 4.77954412,173.070154 3.8355337,172.152186 C2.09725245,170.446456 0.925377454,168.252446 0.319908704,165.570154 C-0.949622546,159.867029 1.67733058,157.669764 6.11092433,153.382654 C16.1825389,143.636561 24.7665233,135.472498 31.8628775,128.890467 C32.0438247,128.722399 32.2928841,128.648484 32.5362194,128.690637 C32.7795547,128.732789 32.9892399,128.886171 33.1031118,129.105311 C35.6812368,134.056483 40.6031118,136.82992 47.5757681,139.974451 C52.6441275,142.249842 60.33944,145.648279 66.0718618,145.531092 C66.2759007,145.524722 66.4523564,145.387037 66.5081428,145.190669 C66.5639291,144.994301 66.4862171,144.784409 66.3160025,144.671717 C57.8882681,139.271326 51.7652212,135.394373 45.4370962,129.32992 C41.823815,125.863123 41.7066275,120.540858 44.7535025,117.005701 C46.5048045,114.967941 162.543216,3.3077846 164.782799,1.79085751 C170.612877,-2.15445499 175.515221,0.980310638 179.294518,5.75570126 C180.186445,6.87549293 180.977461,9.13135231 181.667565,12.5232794 C182.344648,15.8435919 185.5022,30.2609096 191.140221,55.7752325 C191.316676,56.5625999 191.068501,57.3849107 190.485924,57.9432013 L173.62069,74.1541388 C173.437805,74.3292882 173.174867,74.3925675 172.932319,74.3198031 C172.689771,74.2470388 172.505086,74.0494723 172.448815,73.8025763 C172.149336,72.533045 171.612226,71.1560919 170.837487,69.6717169 Z" id="路径" fill="#9C6739"></path>
            <path d="M170.837487,69.6717169 C166.136966,60.7264044 161.381107,53.0441127 156.569909,46.6248419 C156.029544,45.9021856 155.479414,45.42367 154.919518,45.189295 C154.749203,45.1176828 154.552876,45.1505183 154.415132,45.2736532 C154.277388,45.3967882 154.222838,45.5882207 154.274987,45.7654669 C155.485924,49.5610398 157.328372,55.6743211 159.802331,64.1053106 C161.384362,69.5089565 162.598555,75.2869513 163.444909,81.439295 C163.672773,83.0864304 163.200768,84.469894 162.028893,85.5896856 C157.425167,89.9604014 142.846902,103.923606 125.977653,120.11228 C96.1848456,148.703124 60.33944,145.648279 66.0718618,145.531092 C66.2759007,145.524722 66.4523564,145.387037 66.5081428,145.190669 C66.5639291,144.994301 66.4862171,144.784409 66.3160025,144.671717 C57.8882681,139.271326 51.7652212,135.394373 45.4370962,129.32992 C41.823815,125.863123 41.7066275,120.540858 44.7535025,117.005701 C46.5048045,114.967941 162.543216,3.3077846 164.782799,1.79085751 C170.612877,-2.15445499 175.515221,0.980310638 179.294518,5.75570126 C180.186445,6.87549293 180.977461,9.13135231 181.667565,12.5232794 C182.344648,15.8435919 185.5022,30.2609096 191.140221,55.7752325 C191.316676,56.5625999 191.068501,57.3849107 190.485924,57.9432013 L173.62069,74.1541388 C173.437805,74.3292882 173.174867,74.3925675 172.932319,74.3198031 C172.689771,74.2470388 172.505086,74.0494723 172.448815,73.8025763 C172.149336,72.533045 171.612226,71.1560919 170.837487,69.6717169 Z" id="路径" fill="#BE8954"></path>
            <path d="M45.4370962,129.32992 C41.823815,125.863123 41.7066275,120.540858 44.7535025,117.005701 C46.5048045,114.967941 162.543216,3.3077846 164.782799,1.79085751 C170.612877,-2.15445499 175.515221,0.980310638 179.294518,5.75570126 C180.186445,6.87549293 180.977461,9.13135231 181.667565,12.5232794 C182.344648,15.8435919 185.5022,30.2609096 191.140221,55.7752325 C191.316676,56.5625999 191.068501,57.3849107 190.485924,57.9432013 C188.867621,59.4987218 187.653893,60.6653622 186.844741,61.4431225 C183.381096,64.772394 178.887447,24.6719334 173.848005,15.0794657 C172.239234,12.0172063 168.341253,13.0556267 165.427977,15.8666712 L79.9579776,98.7103758 C69.7899049,108.028001 47.1716529,130.992203 45.4370962,129.32992 Z" id="路径" fill="#E1AC72"></path>
        </g>
        <g id="编组" transform="translate(289.5986, 446.9581)">
            <path d="M0.108430694,141.596601 C-0.555631806,136.948164 1.91507132,133.20793 5.20608694,130.073164 C41.9443682,95.1512889 128.825879,11.8765493 136.182649,4.70207016 C143.067415,-2.00691422 154.591895,0.503527643 157.110384,8.41300766 C159.628873,16.3224877 151.465853,24.2528514 144.346712,31.0301952 C129.327181,45.340091 46.1175453,125.08944 21.5146807,148.325117 C18.6240557,151.059492 15.0498369,152.98332 10.8799151,152.436445 C4.61038382,151.622643 1.01988903,148.009362 0.108430694,141.596601 Z" id="路径" fill="#9C6739"></path>
            <path d="M40.4149072,96.4932645 C80.6467627,58.0477713 130.677818,10.0704988 136.182649,4.70207016 C143.067415,-2.00691422 154.591895,0.503527643 157.110384,8.41300766 C159.628873,16.3224877 151.465853,24.2528514 144.346712,31.0301952 C132.76505,42.064652 80.637173,92.0097724 46.0999987,124.949518 C40.375327,130.409409 51.6714355,109.740619 68.3425344,87.2323473 C68.5637519,86.9336733 68.8286038,86.5782931 69.13709,86.1662067 L69.1386898,86.1674023 C69.4693047,85.7250085 69.3786901,85.0983612 68.9362963,84.7677463 C68.6739285,84.5716705 68.3321702,84.5165104 68.0214382,84.6200874 C66.998186,84.9632389 66.1481345,85.2632802 65.4714304,85.5206513 C50.9265051,91.0525282 35.4777829,101.211172 40.4149072,96.4932645 Z" id="路径" fill="#BE8954"></path>
            <path d="M74.3834613,64.0002262 C104.604492,35.0668609 132.177678,8.60780349 136.182649,4.70207016 C143.067415,-2.00691422 154.591895,0.503527643 157.110384,8.41300766 C158.36431,12.3510448 156.970368,16.2942589 154.375738,20.0977634 C154.005413,20.6406285 155.003492,16.4760611 153.288739,11.6476397 C151.800382,6.43417389 147.447611,4.06448595 141.804565,8.18040277 C117.650392,28.117248 66.7742197,71.2852512 74.3834613,64.0002262 Z" id="路径" fill="#E1AC72"></path>
            <path d="M158.399446,35.8055858 C158.543112,35.6655752 158.737336,35.5896839 158.937866,35.5949218 C159.138397,35.6007223 159.328152,35.6871818 159.463899,35.8348827 C162.002962,38.5399608 164.307649,40.8055858 166.27054,43.2762889 C171.221712,49.5262889 178.086946,55.7860545 182.940462,61.5087108 C186.260774,65.4279816 188.946321,68.3967316 190.997103,70.4149608 C198.018587,77.3290233 207.813509,88.8036327 214.346712,95.6102733 C219.288118,100.753502 225.586946,107.527591 233.243196,115.932539 C242.605175,126.205976 258.877962,143.878502 282.061556,168.950117 C285.821321,173.012617 290.206087,177.407148 293.731478,181.254805 C306.73278,195.480065 316.146842,205.597252 321.973665,211.606367 C322.859082,212.517825 323.650097,213.474857 324.346712,214.477461 C324.657017,214.925301 324.590394,215.533236 324.190462,215.903242 L315.420931,223.998945 C315.301779,224.112298 315.13977,224.169453 314.974468,224.15827 C314.809166,224.14345 314.655788,224.06149 314.55179,223.930586 C304.629915,211.293867 294.405306,199.780195 281.465853,190.102461 C273.877962,184.428633 267.803743,179.575117 258.545931,172.573164 C254.288118,169.360273 250.245149,165.356367 246.915071,161.830976 C242.501009,157.156497 237.429394,151.88306 231.700228,146.010664 C226.999707,141.186445 219.362988,132.794518 208.790071,120.834883 C200.124707,111.043216 192.562858,100.70793 186.104524,89.8290233 C181.81416,82.6024608 178.627311,77.6870962 176.543978,75.0829295 C170.163769,67.1011587 166.498405,62.6382681 165.547884,61.6942577 C162.084342,58.2762889 157.894889,54.1649608 152.979524,49.3602733 C151.586295,47.9930858 150.499056,46.7170441 149.717806,45.5321483 C149.394276,45.0393989 149.467995,44.3841131 149.893587,43.9696483 L158.399446,35.8055858 Z" id="路径" fill="#9C6739"></path>
            <path d="M158.399446,35.8055858 C158.543112,35.6655752 158.737336,35.5896839 158.937866,35.5934017 C159.138397,35.6007223 159.328152,35.6871818 159.463899,35.8348827 C162.002962,38.5399608 164.307649,40.8055858 166.27054,43.2762889 C171.221712,49.5262889 178.086946,55.7860545 182.940462,61.5087108 C186.260774,65.4279816 188.946321,68.3967316 190.997103,70.4149608 C198.018587,77.3290233 207.813509,88.8036327 214.346712,95.6102733 C219.288118,100.753502 225.586946,107.527591 233.243196,115.932539 C242.605175,126.205976 258.877962,143.878502 282.061556,168.950117 C285.821321,173.012617 290.206087,177.407148 293.731478,181.254805 C306.73278,195.480065 316.146842,205.597252 321.973665,211.606367 C322.859082,212.517825 323.650097,213.474857 324.346712,214.477461 C324.657017,214.925301 324.590394,215.533236 324.190462,215.903242 C311.613202,206.779195 298.400288,194.57938 284.551719,179.303798 C269.784869,163.015309 250.306087,144.377767 232.940005,124.853631 C220.390941,110.745117 205.711639,93.7822104 194.650986,81.2005541 C170.907453,54.191937 157.530395,36.6397152 157.955233,36.2319486 C158.051387,36.139659 158.199458,35.9975381 158.399446,35.8055858 Z" id="路径" fill="#BE8954"></path>
            <path d="M144.968182,54.7248227 L145.058367,54.8040311 C154.380715,62.9918072 161.910452,70.9972817 168.73105,80.1384447 L168.726617,80.1325934 C168.769366,80.1881644 168.769366,80.1881644 168.812117,80.2437343 C169.041812,80.5423027 169.346624,80.9383892 169.883956,81.6366313 C170.312702,82.1938348 170.644772,82.6256383 170.977927,83.0594731 C175.317191,88.971406 178.680564,95.2424081 182.539427,104.114752 C185.83898,113.488397 187.688948,123.837837 188.224857,134.947702 C188.356368,138.676438 188.439958,142.41628 188.52361,147.705892 C188.566441,149.654397 188.605697,151.375106 188.645149,153.020359 C188.73815,157.07219 188.818665,161.27115 188.890532,165.745808 C189.941456,168.924267 192.05979,173.245323 193.510241,175.151973 C194.777979,176.818444 195.999596,177.693563 197.948732,178.576604 C205.638039,180.411448 213.21342,181.259379 222.263121,181.419757 C232.906904,181.774201 241.099423,182.956583 249.61855,185.612306 C259.391659,189.166488 267.297775,193.094392 274.547209,198.237906 C278.971349,201.699523 282.980509,205.324223 289.044123,211.17448 L289.044878,211.175198 C290.158222,212.235952 290.65676,212.710788 291.299609,213.322588 C296.178978,218.115276 300.039382,222.787413 306.799466,231.681386 L307.043363,232.002272 L306.781558,232.308722 C304.426733,235.065113 306.710507,232.862801 260.10532,277.570886 C259.606819,278.049095 259.102096,278.533582 258.590248,279.025204 C253.692713,283.729215 237.720194,299.150136 236.776453,300.059129 C228.821353,307.721332 223.53087,312.753073 219.41305,316.544283 L219.088154,316.843409 L218.751191,316.557947 C212.245372,311.046485 206.520097,305.203646 200.996058,298.463739 C200.215528,297.568319 200.018626,297.342449 199.743437,297.02685 C199.743288,297.02668 199.743288,297.02668 199.74314,297.02651 C199.461959,296.704041 199.261413,296.474103 198.447506,295.540907 C191.628555,287.508406 186.263824,279.065263 181.823483,269.389557 C179.605685,264.07395 178.14144,258.92949 176.107629,250.153178 C175.798031,248.99379 175.659392,248.474484 175.477685,247.79185 C174.812804,244.83271 174.652719,242.448973 174.569243,237.071724 C174.55532,236.174851 174.548617,235.779265 174.538137,235.285252 C174.50096,233.85445 174.484437,233.213494 174.463786,232.393663 C174.396443,229.76572 174.336521,227.215309 174.247823,223.276585 C174.226186,222.416555 174.209025,221.72855 174.170523,220.180564 C174.132024,218.632672 174.114864,217.944731 174.093228,217.084744 C174.057809,215.667411 174.035939,214.297635 173.998244,211.441211 C173.996617,211.317932 173.996617,211.317932 173.994992,211.19468 C173.919447,205.465964 173.866355,203.259935 173.733403,201.966316 C173.52649,199.953041 172.080268,197.872097 169.16329,195.058576 C167.106906,193.075126 165.028981,192.102766 159.968643,190.381664 C158.390905,190.255161 156.748609,190.174962 154.99265,190.133676 C133.804869,189.473581 122.61259,188.191839 110.291411,184.000301 C102.906349,181.277744 96.6723932,178.18914 90.9516959,174.273459 C85.5414612,170.124594 80.413278,165.556288 73.5809972,158.981195 C73.5214938,158.925488 73.5214938,158.925488 73.4619795,158.869782 C72.9252024,158.367387 72.389509,157.866971 71.2881152,156.838334 C66.3709535,152.083053 62.5782992,147.057653 56.9820867,138.441806 L56.8642658,138.26041 L56.9157949,138.050337 C57.139178,137.139651 76.2773669,118.458897 100.263869,95.5641775 C111.662183,84.6846755 122.264722,74.6734707 130.121186,67.3845289 C140.09073,58.1351471 144.173982,54.5224609 144.851869,54.6951861 Z" id="矢量-54" stroke="#CCCCCC" fill="#F0F0F0"></path>
            <g transform="translate(89.4014, 117.0419)">
                <polygon id="路径" fill="#E5651C" points="0 50 0 40 60 40 60 50 70 50 70 60 20 60 20 50"></polygon>
                <path d="M100,70 L100,80 L90,80 L90,70 L100,70 Z M70,60 L70,50 L60,50 L60,40 L50,40 L50,30 L70,30 L70,20 L80,20 L80,10 L90,10 L90,70 L80,70 L80,60 L70,60 Z" id="形状" fill="#EF8728"></path>
                <polygon id="路径" fill="#F6A426" points="50 40 10 40 10 30 30 30 30 20 60 20 60 10 70 10 70 0 80 0 80 20 70 20 70 30 50 30"></polygon>
                <path d="M110,90 L120,90 L120,100 L110,100 L110,90 Z M190,150 L160,150 L160,140 L150,140 L150,130 L140,130 L140,120 L130,120 L130,110 L150,110 L150,120 L180,120 L179.994439,110 L190,110 L190,120 L210,120 L210,130 L200,130 L200,140 L190,140 L190,150 Z M170,150 L180,150 L180,160 L170,160 Z M130,100 L130,110 L120,110 L120,100 L130,100 Z" id="形状" fill="#EF8728"></path>
                <path d="M130,120 L140,120 L140,130 L150,130 L150,140 L160,140 L160,150 L170,150 L170,170 L160,170 L160,180 L150,180 L150,190 L130,190 L130,120 Z M130,110 L130,120 L120,120 L120,110 L130,110 Z M120,100 L120,110 L110,110 L110,100 L120,100 Z" id="形状" fill="#E5651C"></path>
            </g>
            <path d="M44.5908526,145.922773 C54.4801755,160.226159 66.5862953,172.58293 80.9092119,182.993086 C90.3102536,189.829023 97.9013994,195.717695 103.682649,200.659101 C108.090202,204.435143 113.917024,210.206627 121.163118,217.973555 C131.104524,228.637617 140.902702,239.340742 150.557649,250.08293 C155.486035,255.5647 161.068717,262.696862 167.305696,271.479414 C167.585644,271.870039 170.772493,277.065351 176.866243,287.065351 C182.380566,296.134362 188.324577,303.927331 194.698274,310.444258 C200.193066,316.056237 205.154004,320.883711 209.581087,324.92668 C209.721611,325.054897 209.803285,325.23522 209.807109,325.425413 C209.810671,325.615606 209.736059,325.798962 209.600618,325.932539 L200.762728,334.77043 C200.668976,334.865285 200.539771,334.916859 200.405125,334.913355 C200.270478,334.909481 200.14211,334.850851 200.049837,334.750898 L34.6787432,155.825117 C34.5055745,155.637788 34.4143639,155.389074 34.4244742,155.134204 C34.4363671,154.879335 34.5486702,154.639405 34.7373369,154.467695 L44.0439776,145.86418 C44.1194307,145.792743 44.2226797,145.758228 44.3273679,145.769445 C44.4320561,145.780661 44.5280528,145.836524 44.5908526,145.922773 L44.5908526,145.922773 Z" id="路径" fill="#9C6739"></path>
            <path d="M55.2174253,159.575362 C62.7959653,168.24656 71.3598942,176.052468 80.9092119,182.993086 C90.3102536,189.829023 97.9013994,195.717695 103.682649,200.659101 C108.090202,204.435143 113.917024,210.206627 121.163118,217.973555 C131.104524,228.637617 140.902702,239.340742 150.557649,250.08293 C155.486035,255.5647 161.068717,262.696862 167.305696,271.479414 C167.585644,271.870039 170.772493,277.065351 176.866243,287.065351 C182.380566,296.134362 188.324577,303.927331 194.698716,310.444258 C193.861105,310.485717 192.302625,309.258676 187.982149,304.903466 C156.413689,270.852199 76.1856604,182.797564 60.662658,166.108595 C57.0653648,162.134399 55.4185081,160.271039 55.2174253,159.575362 Z" id="路径" fill="#BE8954"></path>
            <path d="M189.610384,281.567305 L370.508821,281.567305 C377.261365,281.567305 382.735384,287.041323 382.735384,293.793867 C382.735384,300.546411 377.261365,306.02043 370.508821,306.02043 L189.610384,306.02043 C182.85784,306.02043 177.383821,300.546411 177.383821,293.793867 C177.383821,287.041323 182.85784,281.567305 189.610384,281.567305 Z" id="矩形" fill="#9C6739" transform="translate(280.0596, 293.7939) rotate(-43.8) translate(-280.0596, -293.7939)"></path>
            <path d="M243.983153,258.979886 L361.428737,258.979886 C368.181281,258.979886 373.6553,264.453904 373.6553,271.206448 C373.6553,277.957904 368.182163,283.431041 361.430707,283.431041 C361.430051,283.431041 361.429394,283.431041 361.428738,283.431041 C306.790959,283.422228 271.371165,283.417242 255.169357,283.416072 C247.067127,283.415487 239.867938,283.415194 233.571791,283.415194 C245.352164,280.753753 274.940514,275.856284 274.802984,273.082282 C274.029857,270.887496 263.75658,266.186697 243.983153,258.979886 Z" id="矩形" fill="#BE8954" transform="translate(303.6135, 271.2064) rotate(-43.8) translate(-303.6135, -271.2064)"></path>
            <path d="M242.534725,255.376809 L359.98031,255.376809 C366.732854,255.376809 372.206872,260.850828 372.206872,267.603372 C372.206872,274.354721 366.733822,279.827771 359.982472,279.827771 C359.981752,279.827771 359.981031,279.827771 359.98031,279.827771 C359.03271,279.827603 358.08511,279.827436 357.13751,279.827268 C364.018287,275.402688 365.511466,272.41445 367.118012,269.7669 C368.635762,267.334981 367.3339,262.802665 361.486229,261.850513 C347.9401,259.54978 253.134581,259.389717 251.079246,258.563235 C249.609104,258.010191 246.76093,256.948049 242.534725,255.376809 Z" id="矩形" fill="#E1AC72" transform="translate(307.3708, 267.6034) rotate(-43.8) translate(-307.3708, -267.6034)"></path>
        </g>
        <g id="编组" transform="translate(554.7676, 725.2806)">
            <path d="M168.923832,153.772135 C188.650395,179.709635 202.856124,198.557292 211.54102,210.315104 C217.33529,218.153646 222.839848,226.311198 228.054691,234.78776 C228.30869,235.204394 228.257067,235.740476 227.927738,236.10612 C219.919926,244.882161 210.007816,247.922526 198.19141,245.227213 C195.564457,244.63151 193.162113,242.902995 191.00391,240.774088 C184.812504,234.680338 177.625004,228.401042 173.142582,224.240885 C146.86003,199.826823 112.2474,168.215495 69.3046915,129.406901 C63.9856811,124.602213 58.4908894,119.602213 52.8203165,114.406901 C21.4010456,85.6438801 4.74739981,70.3964843 2.85937897,68.6647134 C1.88281647,67.7727863 0.987634182,66.8906249 0.173832099,66.0182291 C0.055974334,65.891947 -0.00626203432,65.723642 0.000498381304,65.5510625 C0.00842558099,65.378483 0.0847349077,65.2160735 0.212894599,65.1002603 C19.6269571,47.4830728 39.4479206,28.6321613 59.6757852,8.54752593 C62.0130248,6.22330718 64.3470092,3.79166655 66.6777383,1.25260405 C66.8223975,1.09343631 67.0269344,1 67.2420093,1 C67.4570842,1 67.6631691,1.08618828 67.8105508,1.24283843 C69.1126342,2.60351551 70.1966186,3.83072905 71.062504,4.92447905 C80.7955769,17.2877603 94.8483113,34.7584634 113.220707,57.3365884 C121.07227,66.9947916 128.582035,77.1608072 137.000004,87.1119791 C144.480473,95.9401041 152.898441,107.248698 159.460941,115.266276 C176.589848,136.229818 187.667322,149.891927 192.693363,156.252604 C203.777348,170.266276 215.085941,183.625651 228.611332,200.32487 C234.070316,207.063151 235.164066,216.047526 233.474613,224.299479 C233.458627,224.361051 233.408862,224.408075 233.346484,224.42055 C233.284105,224.433026 233.220083,224.40876 233.181645,224.358073 C227.472009,215.998698 221.430343,207.883463 215.056645,200.01237 C208.445316,191.838542 202.175785,185.617838 194.724613,177.776042 C186.417322,169.032552 177.930994,160.927083 169.265629,153.459635 C169.175489,153.387482 169.04623,153.391726 168.961016,153.469635 C168.875803,153.547545 168.860024,153.675908 168.923832,153.772135 Z M72.4003946,40.1686197 C72.2740331,40.0873194 72.1098272,40.1090042 72.0078595,40.2204573 C71.9058918,40.3319103 71.8944353,40.5022286 71.9804727,40.6276041 C77.5664102,48.3033853 81.4954467,53.7102863 83.7675821,56.8483072 C86.1373738,60.1230468 88.500655,63.0755207 90.8574258,65.7057291 C108.054691,84.8463541 127.869145,104.406901 144.324223,120.803385 C144.416193,120.899311 144.566573,120.908092 144.669082,120.823522 C144.771592,120.738951 144.791548,120.589643 144.714848,120.48112 C141.095056,114.869141 137.937504,110.302083 135.242191,106.779948 C127.673832,96.9166666 120.593754,86.9850259 112.664066,77.1998697 C107.195316,70.4615884 103.399744,65.9596353 101.277348,63.6940103 C92.8203165,54.6640624 83.1946654,46.8222655 72.4003946,40.1686197 Z M169.089848,201.838542 C165.548181,196.734375 162.048832,192.059896 158.591801,187.815104 C140.011072,164.989583 126.827478,149.270182 119.04102,140.656901 C100.818363,120.500651 84.2168008,104.895182 64.2460977,86.6139322 C58.7578165,81.5944009 53.4908894,77.3170572 48.4453165,73.7819009 C48.3834095,73.7408976 48.3036063,73.7385453 48.2393917,73.7758312 C48.1751771,73.8131171 48.1376599,73.8835909 48.1421508,73.9576822 C48.1751342,74.2571613 48.3313842,74.5761718 48.6113321,74.9147134 C70.6360717,101.197266 92.9830769,126.252604 115.652348,150.080729 C132.849613,168.156901 152.898441,187.766276 168.708988,202.170573 C168.804074,202.259812 168.951301,202.262513 169.049596,202.17682 C169.147891,202.091127 169.165289,201.944907 169.089848,201.838542 Z" id="形状" fill="#9C6739" fill-rule="nonzero"></path>
            <path d="M168.923832,153.772135 C188.650395,179.709635 202.856124,198.557292 211.54102,210.315104 C217.33529,218.153646 222.839848,226.311198 228.054691,234.78776 C228.30869,235.204394 228.257067,235.740476 227.927738,236.10612 C227.028042,237.092128 226.104308,238.005735 225.156536,238.84694 C224.012834,239.862045 98.0231123,105.6007 54.9148577,51.4827725 C45.1397564,39.21115 45.6747851,22.3160866 46.4746866,21.5363143 C50.8556264,17.2656191 55.2559926,12.9360229 59.6757852,8.54752593 C62.0130248,6.22330718 64.3470092,3.79166655 66.6777383,1.25260405 C66.8223975,1.09343631 67.0269344,1 67.2420093,1 C67.4570842,1 67.6631691,1.08618828 67.8105508,1.24283843 C69.1126342,2.60351551 70.1966186,3.83072905 71.062504,4.92447905 C80.7955769,17.2877603 94.8483113,34.7584634 113.220707,57.3365884 C121.07227,66.9947916 128.582035,77.1608072 137.000004,87.1119791 C144.480473,95.9401041 152.898441,107.248698 159.460941,115.266276 C176.589848,136.229818 187.667322,149.891927 192.693363,156.252604 C203.777348,170.266276 215.085941,183.625651 228.611332,200.32487 C234.070316,207.063151 235.164066,216.047526 233.474613,224.299479 C233.458627,224.361051 233.408862,224.408075 233.346484,224.42055 C233.284105,224.433026 233.220083,224.40876 233.181645,224.358073 C227.472009,215.998698 221.430343,207.883463 215.056645,200.01237 C208.445316,191.838542 202.175785,185.617838 194.724613,177.776042 C186.417322,169.032552 177.930994,160.927083 169.265629,153.459635 C169.175489,153.387482 169.04623,153.391726 168.961016,153.469635 C168.875803,153.547545 168.860024,153.675908 168.923832,153.772135 Z M72.4003946,40.1686197 C72.2740331,40.0873194 72.1098272,40.1090042 72.0078595,40.2204573 C71.9058918,40.3319103 71.8944353,40.5022286 71.9804727,40.6276041 C77.5664102,48.3033853 81.4954467,53.7102863 83.7675821,56.8483072 C86.1373738,60.1230468 88.500655,63.0755207 90.8574258,65.7057291 C108.054691,84.8463541 127.869145,104.406901 144.324223,120.803385 C144.416193,120.899311 144.566573,120.908092 144.669082,120.823522 C144.771592,120.738951 144.791548,120.589643 144.714848,120.48112 C141.095056,114.869141 137.937504,110.302083 135.242191,106.779948 C127.673832,96.9166666 120.593754,86.9850259 112.664066,77.1998697 C107.195316,70.4615884 103.399744,65.9596353 101.277348,63.6940103 C92.8203165,54.6640624 83.1946654,46.8222655 72.4003946,40.1686197 Z" id="形状" fill="#BE8954" fill-rule="nonzero"></path>
        </g>
    </g>
</svg>